<svg xmlns="http://www.w3.org/2000/svg" viewBox="0 0 91.87 91.82"><g id="Layer_2" data-name="Layer 2"><g id="Layer_1-2" data-name="Layer 1"><path d="M41.9,67c-6.37-1.57-11-5.48-14.38-10.72-1.3-2-2.53-1.59-4-1.29a16.08,16.08,0,0,0-2.7,1,49.39,49.39,0,0,1-2.52,7.17c-2,3.75-5.51,4.89-9.5,4.46a9.39,9.39,0,0,1-7.57-5.35,9.64,9.64,0,0,1,1.23-11A9.57,9.57,0,0,1,12.34,48a11.81,11.81,0,0,1,4.72,2.75,3.87,3.87,0,0,0,4.67.62c.14-.07.24-.31.37-.32,2.44,0,2.51-.88,2.18-3.33-1.17-8.64,1.25-16.24,8.23-22,.55-.45,1-1.16,1.57-1.44,1.47-.69,1.71-1.79.88-2.91A3.53,3.53,0,0,0,32.59,20a10,10,0,0,1-9.68-6c-2.37-4.7.36-11.12,4.9-13.08A9.89,9.89,0,0,1,38.57,2.44a9.46,9.46,0,0,1,3.23,9.71,9,9,0,0,1-2.47,4.56c-1.55,1.42-.82,2.69-.13,3.67.39.55,2,.64,2.86.38,7.06-2.08,13.52-.54,19.44,3.38,1.58,1.05,2.37,1,3.48-.23a19.15,19.15,0,0,1,1.6-1.52c1.82-1.63,2.53-3,1.56-5.89-1.44-4.21.44-9,5.17-11.43a9.62,9.62,0,0,1,11,1.29,9.38,9.38,0,0,1,3.31,9.7c-1.37,5.94-7.4,9.58-13.28,7.21-1.33-.54-2.57-.71-3.55.64-.09.13-.27.19-.39.3-4,3.78-4.11,3.87-1.4,8.42a22.24,22.24,0,0,1,2.61,15.1c-.5,3.33-2.24,6.47-3.55,10,2,1.72,4.38,3.74,6.81,5.64a1.93,1.93,0,0,0,1.72-.13c5.89-3.7,12.91-.71,14.86,5.7A9.83,9.83,0,0,1,83,81.63,10,10,0,0,1,71.84,70.38c0-.24-.07-.56.06-.73,2-2.76-.45-3.66-2-4.94s-3.07-2.53-4.84-4c-5.25,4.87-11.44,7.65-18.83,7-.62,2.84-.24,4.47,2.26,6.49,5.49,4.44,4.61,12.71-1.8,16.31-3.91,2.19-7.9,1.52-11.22-1.18a9.62,9.62,0,0,1-3.29-10,9.35,9.35,0,0,1,7-7.33C42.58,71.27,41.82,69.19,41.9,67ZM62.64,56.65c7.07-7.12,7.14-19.06-.84-26.81-8.61-8.38-20.32-7.8-28.18.35s-7.17,19.89-.34,26.44A58.75,58.75,0,0,1,40.23,54c2.26-.58,2.22-1.86,1.26-3.21-3.06-4.3-3.73-9-3.63-14.19.07-4,4.39-8.63,8.53-8.64a14.67,14.67,0,0,1,6.89,1.81c3.19,1.59,4.62,3.72,4.59,7.12,0,2.07.11,4.14,0,6.2a8.78,8.78,0,0,1-1,3.18c-.85,1.69-2.06,3.22-2.76,5-.44,1.09-.44,2.29,1.42,2.75A62.16,62.16,0,0,1,62.64,56.65ZM59.37,60c-2.15-.85-3.81-1.55-5.51-2.17-3.11-1.14-3.79-2.26-4-5.54a9.24,9.24,0,0,1,1.76-5.55c.69-1.14-.35-3.31,1.61-3.15a11.38,11.38,0,0,1,.24-3,6.22,6.22,0,0,0-5.19-8.66c-4.75-.37-7.68,3.69-6.09,8.35a19.34,19.34,0,0,1,.45,3.52l.86.2A29.78,29.78,0,0,0,45,48.33c2.34,4.4,1.15,7.8-3.43,9.55-1.61.61-3.15,1.4-4.94,2.2C44.36,64.92,51.58,64.83,59.37,60ZM31.89,4.06a6.22,6.22,0,0,0-5.84,6.12A6.14,6.14,0,0,0,32.22,16a6.11,6.11,0,0,0,5.72-6A6.19,6.19,0,0,0,31.89,4.06ZM71.83,14a6,6,0,0,0,11.9.08A6,6,0,1,0,71.83,14ZM10.18,63.75a6,6,0,0,0,0-11.91,6,6,0,1,0,0,11.91Zm71.61,2a6,6,0,1,0,.06,11.9,6,6,0,0,0-.06-11.9ZM36,81.48a6.2,6.2,0,0,0,5.82,6.14,5.95,5.95,0,0,0,.39-11.89A6.21,6.21,0,0,0,36,81.48Z"></path></g></g></svg>